<svg width="100" height="100" viewBox="0 0 100 100" fill="none" xmlns="http://www.w3.org/2000/svg">
<g clip-path="url(#clip0_128_10361)">
<path d="M5.20799 54.167C8.08399 54.167 10.416 51.835 10.416 48.959C10.502 35.704 21.267 24.992 34.534 24.992C34.766 24.992 34.996 24.995 35.226 25.002L35.192 25.001H82.226L76.515 30.712C75.568 31.655 74.983 32.96 74.983 34.401C74.983 37.277 77.315 39.609 80.191 39.609C81.633 39.609 82.937 39.023 83.88 38.077L98.474 23.485C99.417 22.543 100 21.241 100 19.803C100 18.365 99.417 17.063 98.474 16.121L83.88 1.527C82.938 0.589003 81.639 0.00900269 80.204 0.00900269C77.328 0.00900269 74.996 2.341 74.996 5.217C74.996 6.652 75.576 7.951 76.515 8.893L82.206 14.585H35.192C34.962 14.58 34.692 14.576 34.42 14.576C15.423 14.576 0.0199929 29.966 -0.00100708 48.958V48.96C-0.00100708 51.836 2.33099 54.168 5.20699 54.168L5.20799 54.167Z" fill="#343434"/>
<path d="M83.881 47.359C82.939 46.421 81.64 45.841 80.205 45.841C77.329 45.841 74.997 48.173 74.997 51.049C74.997 52.484 75.577 53.783 76.516 54.725L82.207 60.417H35.193C34.963 60.412 34.693 60.408 34.421 60.408C15.424 60.408 0.021 75.798 0 94.79V94.792C0 97.668 2.332 100 5.208 100C8.084 100 10.416 97.668 10.416 94.792C10.502 81.537 21.267 70.825 34.534 70.825C34.766 70.825 34.996 70.828 35.226 70.835L35.192 70.834H82.226L76.515 76.545C75.568 77.488 74.983 78.793 74.983 80.234C74.983 83.11 77.315 85.442 80.191 85.442C81.633 85.442 82.937 84.856 83.88 83.91L98.474 69.318C99.417 68.376 100 67.074 100 65.636C100 64.198 99.417 62.896 98.474 61.954L83.881 47.359Z" fill="#343434"/>
</g>
<defs>
<clipPath id="clip0_128_10361">
<rect width="100" height="100" fill="white"/>
</clipPath>
</defs>
</svg>
