<svg width="81" height="100" viewBox="0 0 81 100" fill="none" xmlns="http://www.w3.org/2000/svg">
<g clip-path="url(#clip0_128_3688)">
<path d="M78.571 -7.08003e-06H69.047V19.048L61.904 16.667L54.761 19.048V-7.08003e-06H-0.000976562V100H78.57C78.584 100 78.601 100 78.618 100C79.882 100 80.911 98.996 80.951 97.741V97.737V2.26099C80.911 1.00299 79.882 -0.00100708 78.618 -0.00100708C78.601 -0.00100708 78.585 -0.00100708 78.568 -0.00100708H78.57L78.571 -7.08003e-06ZM14.286 91.667C14.286 91.671 14.286 91.675 14.286 91.679C14.286 92.33 13.758 92.858 13.107 92.858C13.103 92.858 13.099 92.858 13.095 92.858H8.33402C8.33002 92.858 8.32602 92.858 8.32202 92.858C7.67102 92.858 7.14302 92.33 7.14302 91.679C7.14302 91.675 7.14302 91.671 7.14302 91.667V8.33499C7.14302 8.33099 7.14302 8.32699 7.14302 8.32299C7.14302 7.67199 7.67102 7.14399 8.32202 7.14399C8.32602 7.14399 8.33002 7.14399 8.33402 7.14399H13.095C13.099 7.14399 13.103 7.14399 13.107 7.14399C13.758 7.14399 14.286 7.67199 14.286 8.32299C14.286 8.32699 14.286 8.33099 14.286 8.33499V8.33399V91.667ZM60.714 54.762H29.762C27.79 54.762 26.191 53.163 26.191 51.191C26.191 49.219 27.79 47.62 29.762 47.62H60.714C62.686 47.62 64.285 49.219 64.285 51.191C64.285 53.163 62.686 54.762 60.714 54.762ZM60.714 40.476H29.762C27.79 40.476 26.191 38.877 26.191 36.905C26.191 34.933 27.79 33.334 29.762 33.334H60.714C62.686 33.334 64.285 34.933 64.285 36.905C64.285 38.877 62.686 40.476 60.714 40.476Z" fill="#343434"/>
</g>
<defs>
<clipPath id="clip0_128_3688">
<rect width="81" height="100" fill="white"/>
</clipPath>
</defs>
</svg>
