<svg width="71" height="100" viewBox="0 0 71 100" fill="none" xmlns="http://www.w3.org/2000/svg">
<g clip-path="url(#clip0_128_3685)">
<path d="M43.75 6.25C43.75 2.798 40.952 0 37.5 0C34.048 0 31.25 2.798 31.25 6.25V12.5H43.75V6.25Z" fill="#343434"/>
<path d="M31.25 54.167H43.75V50H54.167C63.372 50 70.834 42.538 70.834 33.333C70.834 24.128 63.372 16.666 54.167 16.666H24.25C22.792 15.375 20.863 14.586 18.751 14.583H8.33398C3.73198 14.583 0.000976562 18.314 0.000976562 22.916C0.000976562 27.518 3.73198 31.249 8.33398 31.249H18.751C20.864 31.246 22.793 30.457 24.26 29.158L24.251 29.166H54.168C56.469 29.166 58.335 31.032 58.335 33.333C58.335 35.634 56.469 37.5 54.168 37.5H43.751V33.333H31.251V37.5H25.001C15.796 37.5 8.33398 44.962 8.33398 54.167C8.33398 63.372 15.796 70.834 25.001 70.834H45.834C48.135 70.834 50.001 72.7 50.001 75.001C50.001 77.302 48.135 79.168 45.834 79.168H43.751V75.001H31.251V79.168H27.084C23.632 79.168 20.834 81.966 20.834 85.418C20.834 88.87 23.632 91.668 27.084 91.668H31.251V93.751C31.251 93.762 31.251 93.774 31.251 93.787C31.251 94.523 31.389 95.227 31.64 95.874L31.627 95.835C31.74 96.175 31.867 96.464 32.016 96.739L32.002 96.71C32.07 96.869 32.154 97.007 32.254 97.13L32.252 97.127C32.321 97.247 32.39 97.349 32.465 97.446L32.46 97.44C33.165 98.411 34.129 99.153 35.252 99.572L35.294 99.586C35.396 99.646 35.515 99.69 35.642 99.71L35.648 99.711C35.775 99.768 35.922 99.811 36.076 99.835L36.086 99.836C36.189 99.866 36.31 99.889 36.434 99.898H36.44C36.759 99.964 37.127 100.002 37.503 100.002C37.879 100.002 38.246 99.964 38.601 99.892L38.566 99.898C38.696 99.888 38.817 99.866 38.933 99.832L38.92 99.835C40.42 99.487 41.678 98.629 42.533 97.457L42.545 97.44C42.616 97.349 42.685 97.247 42.746 97.14L42.753 97.127C42.851 97.007 42.935 96.87 42.999 96.721L43.003 96.71C43.138 96.464 43.265 96.175 43.367 95.874L43.378 95.835C43.616 95.227 43.753 94.523 43.753 93.788C43.753 93.775 43.753 93.763 43.753 93.75V93.752V91.669H45.836C55.041 91.669 62.503 84.207 62.503 75.002C62.503 65.797 55.041 58.335 45.836 58.335H25.003C22.702 58.335 20.836 56.469 20.836 54.168C20.836 51.867 22.702 50.001 25.003 50.001H31.253L31.25 54.167ZM8.33298 22.917C7.18198 22.917 6.24998 21.984 6.24998 20.834C6.24998 19.684 7.18298 18.751 8.33298 18.751C9.48398 18.751 10.416 19.684 10.416 20.834C10.412 21.983 9.48198 22.914 8.33298 22.917Z" fill="#343434"/>
</g>
<defs>
<clipPath id="clip0_128_3685">
<rect width="71" height="100" fill="white"/>
</clipPath>
</defs>
</svg>
