<svg width="96" height="100" viewBox="0 0 96 100" fill="none" xmlns="http://www.w3.org/2000/svg">
<g clip-path="url(#clip0_128_3683)">
<path d="M47.935 85.495C49.699 86.705 51.881 87.428 54.231 87.428C54.409 87.428 54.586 87.424 54.762 87.416L54.737 87.417H55.602C57.99 87.409 60.21 86.694 62.063 85.468L62.019 85.495C64.012 84.21 65.609 82.472 66.691 80.42L66.726 80.347C67.815 78.338 68.455 75.949 68.455 73.411C68.455 73.377 68.455 73.344 68.455 73.31V73.315V73.104C68.454 72.899 68.381 72.712 68.262 72.564L68.263 72.566C68.143 72.436 67.973 72.355 67.783 72.355H3.49902C3.49602 72.355 3.49302 72.355 3.49002 72.355C2.52002 72.355 1.65102 72.785 1.06302 73.465L1.06002 73.469C0.428016 74.178 0.0410156 75.119 0.0410156 76.149C0.0410156 77.179 0.427016 78.12 1.06302 78.833L1.05902 78.829C1.63602 79.554 2.51102 80.02 3.49602 80.039H3.49902H43.326C44.501 82.205 46.048 84.022 47.899 85.467L47.937 85.496L47.935 85.495ZM95.139 46.013C94.66 44.723 94.01 43.609 93.202 42.631L93.218 42.65C92.182 41.374 90.764 40.443 89.141 40.029L89.088 40.017V34.983C89.062 30.051 88.062 25.36 86.27 21.082L86.359 21.323C84.599 17.022 82.114 13.354 79.023 10.298L79.02 10.295C75.995 7.215 72.408 4.698 68.424 2.91L68.204 2.822C64.358 1.06 59.864 0.0230011 55.129 -0.0019989H55.12C54.302 0.635001 53.651 1.446 53.215 2.379L53.198 2.419C52.773 3.343 52.526 4.424 52.526 5.563C52.526 5.566 52.526 5.568 52.526 5.571C52.549 7.501 53.337 9.242 54.601 10.509C55.748 11.695 57.354 12.431 59.132 12.431C59.174 12.431 59.215 12.431 59.256 12.43H59.25H59.346C59.351 12.43 59.356 12.43 59.362 12.43C59.999 12.43 60.57 12.712 60.958 13.158L60.96 13.161C61.377 13.612 61.633 14.217 61.633 14.882C61.633 14.905 61.633 14.928 61.632 14.951V14.948C61.634 14.982 61.635 15.022 61.635 15.063C61.635 15.695 61.377 16.266 60.96 16.677C60.566 17.103 60.003 17.369 59.379 17.369C59.367 17.369 59.356 17.369 59.344 17.369H59.211H59.207C57.147 17.369 55.223 16.783 53.595 15.768L53.64 15.794C51.954 14.737 50.59 13.312 49.636 11.625L49.606 11.567C48.613 9.843 48.012 7.782 47.973 5.584V5.573V5.477C47.972 5.416 47.971 5.345 47.971 5.273C47.971 3.504 48.398 1.835 49.154 0.364001L49.126 0.424001L48.992 0.539001C43.458 1.49 38.56 3.69 34.425 6.842L34.506 6.783C30.251 9.97 26.825 14.029 24.451 18.712L24.362 18.906C21.94 23.535 20.519 29.018 20.519 34.833C20.519 34.887 20.519 34.941 20.519 34.995V34.987V40.021C18.842 40.446 17.425 41.377 16.4 42.639L16.389 42.653C15.596 43.612 14.946 44.725 14.494 45.936L14.468 46.016C14.018 47.201 13.757 48.571 13.757 50.003C13.757 51.435 14.018 52.804 14.495 54.069L14.469 53.99C14.948 55.28 15.598 56.394 16.406 57.372L16.39 57.353C17.474 58.568 18.872 59.482 20.457 59.968L20.521 59.985V65.019C20.536 65.963 20.605 66.874 20.726 67.77L20.713 67.651H67.783C67.836 67.649 67.897 67.648 67.959 67.648C69.444 67.648 70.766 68.344 71.618 69.428L71.626 69.438C72.52 70.415 73.068 71.721 73.068 73.156C73.068 73.2 73.068 73.243 73.066 73.287V73.281V73.492C73.067 73.553 73.067 73.625 73.067 73.697C73.067 77.138 72.199 80.376 70.67 83.205L70.722 83.099C69.187 85.952 67.028 88.29 64.415 89.991L64.343 90.035C61.892 91.649 58.886 92.61 55.655 92.61C55.643 92.61 55.631 92.61 55.619 92.61H54.18C54.142 92.61 54.096 92.611 54.051 92.611C51.372 92.611 48.859 91.898 46.693 90.651L46.765 90.689C44.393 89.353 42.452 87.511 41.04 85.297L41.002 85.232L40.906 85.117H28.86C32.023 89.28 35.803 92.778 40.099 95.541L40.272 95.645C44.353 98.349 49.347 99.988 54.719 100.064H54.739C59.661 100.014 64.253 98.65 68.196 96.307L68.072 96.375C72.328 93.962 75.94 90.951 78.936 87.404L78.984 87.346C81.852 84.063 84.307 80.311 86.201 76.245L86.323 75.953C87.919 72.783 88.912 69.062 89.05 65.125L89.051 65.079V59.988C90.701 59.49 92.1 58.575 93.174 57.365L93.182 57.356C93.975 56.397 94.625 55.284 95.077 54.073L95.103 53.993C95.565 52.809 95.832 51.439 95.832 50.006C95.832 48.573 95.564 47.203 95.076 45.943L95.102 46.02L95.139 46.013ZM47.109 48.838C45.032 51.096 42.068 52.51 38.774 52.527H38.771C37.117 52.507 35.56 52.112 34.175 51.423L34.237 51.451C32.731 50.762 31.454 49.823 30.403 48.674L30.395 48.665V48.761C29.918 48.251 29.625 47.564 29.625 46.808C29.625 46.779 29.625 46.749 29.626 46.72V46.724C29.625 46.698 29.625 46.667 29.625 46.637C29.625 45.876 29.918 45.184 30.397 44.667L30.395 44.669C30.857 44.161 31.521 43.844 32.259 43.844C32.997 43.844 33.66 44.161 34.121 44.667L34.123 44.669C35.294 45.856 36.92 46.59 38.718 46.59C38.737 46.59 38.756 46.59 38.775 46.59H38.772C38.819 46.591 38.875 46.592 38.931 46.592C40.636 46.592 42.169 45.851 43.224 44.674L43.229 44.669C43.758 44.174 44.464 43.864 45.242 43.843H45.246C45.252 43.843 45.26 43.843 45.267 43.843C45.987 43.843 46.632 44.162 47.068 44.666L47.071 44.669C47.548 45.184 47.841 45.877 47.841 46.637C47.841 46.668 47.841 46.698 47.84 46.729V46.725C47.847 46.802 47.852 46.891 47.852 46.981C47.852 47.691 47.593 48.341 47.165 48.842L47.168 48.838H47.109ZM79.02 48.838C77.947 49.946 76.673 50.851 75.255 51.496L75.178 51.528C73.86 52.159 72.313 52.527 70.68 52.527C70.661 52.527 70.641 52.527 70.622 52.527H70.625C67.304 52.479 64.337 51.007 62.297 48.697L62.286 48.685V48.781C61.809 48.26 61.517 47.564 61.517 46.799C61.517 46.78 61.517 46.761 61.518 46.742V46.745C61.518 46.73 61.518 46.712 61.518 46.694C61.518 45.922 61.81 45.218 62.289 44.687L62.287 44.69C62.726 44.181 63.372 43.861 64.093 43.861C64.133 43.861 64.174 43.862 64.214 43.864H64.208C64.957 43.902 65.627 44.21 66.13 44.691L66.129 44.69C67.189 45.873 68.721 46.613 70.427 46.613C70.483 46.613 70.539 46.612 70.594 46.611H70.586C70.602 46.611 70.621 46.611 70.64 46.611C72.438 46.611 74.064 45.876 75.234 44.69L75.235 44.689C75.697 44.181 76.361 43.864 77.099 43.864C77.837 43.864 78.5 44.181 78.961 44.687L78.963 44.689C79.44 45.204 79.733 45.897 79.733 46.657C79.733 46.688 79.733 46.718 79.732 46.749V46.745C79.74 46.823 79.744 46.913 79.744 47.005C79.744 47.705 79.493 48.347 79.075 48.844L79.079 48.84L79.02 48.838Z" fill="#343434"/>
</g>
<defs>
<clipPath id="clip0_128_3683">
<rect width="96" height="100" fill="white"/>
</clipPath>
</defs>
</svg>
