<svg width="100" height="100" viewBox="0 0 100 100" fill="none" xmlns="http://www.w3.org/2000/svg">
<g clip-path="url(#clip0_128_8137)">
<path d="M88.166 64.929C90.758 68.459 100 81.494 100 87.451C100 94.355 94.404 99.951 87.5 99.951C80.596 99.951 75 94.355 75 87.451C75 81.494 84.242 68.459 86.833 64.929C86.983 64.719 87.225 64.584 87.5 64.584C87.775 64.584 88.017 64.719 88.165 64.927L88.167 64.93L88.166 64.929Z" fill="#343434"/>
<path d="M4.16702 2.083H10.417C12.718 2.083 14.584 3.949 14.584 6.25V16.667H39.584V6.25H30.209C28.483 6.25 27.084 4.851 27.084 3.125C27.084 1.399 28.483 0 30.209 0H59.376C61.102 0 62.501 1.399 62.501 3.125C62.501 4.851 61.102 6.25 59.376 6.25H50.001V16.667H71.141C84.772 16.683 95.818 27.729 95.834 41.358V45.833H97.917C99.068 45.833 100 46.766 100 47.916V54.166C100 55.317 99.067 56.249 97.917 56.249H77.084C75.933 56.249 75.001 55.316 75.001 54.166V47.916C75.001 46.765 75.934 45.833 77.084 45.833H79.167V41.359C79.162 36.928 75.571 33.338 71.141 33.333H14.583V43.75C14.583 46.051 12.717 47.917 10.416 47.917H4.16602C1.86502 47.917 -0.000976562 46.051 -0.000976562 43.75V6.25C-0.000976562 3.949 1.86602 2.083 4.16702 2.083Z" fill="#343434"/>
</g>
<defs>
<clipPath id="clip0_128_8137">
<rect width="100" height="100" fill="white"/>
</clipPath>
</defs>
</svg>
